<svg width="20" height="16" viewBox="0 0 20 16" fill="none" xmlns="http://www.w3.org/2000/svg">
<path d="M18.3023 13.708C20.1879 11.66 19.9981 9.03 19.9921 9V1C19.9921 0.734784 19.8868 0.48043 19.6994 0.292893C19.512 0.105357 19.2578 0 18.9928 0H12.9973C11.8951 0 10.9988 0.897 10.9988 2V9C10.9988 9.26522 11.1041 9.51957 11.2915 9.70711C11.4789 9.89464 11.733 10 11.998 10H15.0737C15.0526 10.4944 14.905 10.9751 14.6451 11.396C14.1374 12.197 13.1812 12.744 11.8012 13.02L10.9988 13.18V16H11.998C14.779 16 16.9004 15.229 18.3023 13.708ZM7.30354 13.708C9.19013 11.66 8.99928 9.03 8.99328 9V1C8.99328 0.734784 8.888 0.48043 8.70061 0.292893C8.51321 0.105357 8.25905 0 7.99403 0H1.99851C0.89633 0 0 0.897 0 2V9C0 9.26522 0.105278 9.51957 0.292675 9.70711C0.480071 9.89464 0.734235 10 0.999253 10H4.07496C4.05384 10.4944 3.90624 10.9751 3.64628 11.396C3.13866 12.197 2.18237 12.744 0.8024 13.02L0 13.18V16H0.999253C3.78018 16 5.90159 15.229 7.30354 13.708V13.708Z" fill="black" fill-opacity="0.62"/>
</svg>
