<svg width="20" height="16" viewBox="0 0 20 16" fill="none" xmlns="http://www.w3.org/2000/svg">
<path d="M1.69675 2.292C3.09931 0.771 5.22165 0 8.00377 0H9.00346V2.819L8.19971 2.98C6.83014 3.254 5.87744 3.793 5.3676 4.584C5.10158 5.01013 4.9507 5.49804 4.92974 6H8.00377C8.2689 6 8.52318 6.10536 8.71066 6.29289C8.89813 6.48043 9.00346 6.73478 9.00346 7V14C9.00346 15.103 8.10674 16 7.00409 16H1.00597C0.740838 16 0.486564 15.8946 0.299087 15.7071C0.11161 15.5196 0.00628586 15.2652 0.00628586 15V10L0.00928493 7.081C0.000287764 6.97 -0.189653 4.34 1.69675 2.292ZM18.0006 16H12.0025C11.7374 16 11.4831 15.8946 11.2956 15.7071C11.1082 15.5196 11.0028 15.2652 11.0028 15V10L11.0058 7.081C10.9968 6.97 10.8069 4.34 12.6933 2.292C14.0959 0.771 16.2182 0 19.0003 0H20V2.819L19.1963 2.98C17.8267 3.254 16.874 3.793 16.3641 4.584C16.0981 5.01013 15.9472 5.49804 15.9263 6H19.0003C19.2654 6 19.5197 6.10536 19.7072 6.29289C19.8947 6.48043 20 6.73478 20 7V14C20 15.103 19.1033 16 18.0006 16Z" fill="black" fill-opacity="0.62"/>
</svg>
